<?xml version="1.0" standalone="no"?>
<!DOCTYPE svg PUBLIC "-//W3C//DTD SVG 20010904//EN"
 "http://www.w3.org/TR/2001/REC-SVG-20010904/DTD/svg10.dtd">
<svg version="1.0" xmlns="http://www.w3.org/2000/svg"
 width="1440.000000pt" height="1440.000000pt" viewBox="0 0 1440.000000 1440.000000"
 preserveAspectRatio="xMidYMid meet">
<metadata>
Created by potrace 1.11, written by Peter Selinger 2001-2013
</metadata>
<g transform="translate(0.000000,1440.000000) scale(0.100000,-0.100000)"
fill="#000000" stroke="none">
<path d="M0 7200 l0 -7200 7200 0 7200 0 0 7200 0 7200 -7200 0 -7200 0 0
-7200z m11743 5021 c214 -73 274 -123 318 -260 41 -129 20 -387 -45 -547 -14
-33 -28 -84 -32 -112 -20 -156 96 -292 250 -292 82 1 128 23 221 109 102 95
165 131 230 131 65 0 122 -27 185 -86 54 -50 173 -215 196 -271 43 -103 -22
-230 -180 -350 -56 -42 -264 -148 -476 -243 -47 -21 -168 -77 -269 -124 -102
-47 -190 -86 -197 -86 -15 0 -66 53 -554 580 -222 239 -414 447 -428 463 l-26
27 33 138 c70 288 141 625 141 668 0 66 105 214 186 265 107 66 235 63 447
-10z m-996 -1633 c43 -46 112 -119 153 -163 42 -44 110 -116 152 -160 41 -44
102 -109 134 -145 33 -36 90 -99 129 -140 38 -41 85 -91 103 -111 l33 -36
-109 -109 c-116 -117 -224 -254 -307 -393 -66 -109 -150 -268 -174 -329 -10
-26 -34 -81 -53 -122 -19 -41 -40 -91 -47 -110 -7 -19 -17 -44 -21 -55 -8 -20
-84 -228 -101 -275 -31 -89 -105 -376 -123 -480 -17 -99 -27 -149 -53 -265
-15 -69 -25 -106 -64 -255 -39 -148 -123 -367 -216 -559 -119 -243 -350 -526
-543 -662 -224 -158 -395 -223 -731 -278 -84 -14 -378 -14 -472 -1 -148 22
-273 42 -307 50 -102 25 -168 42 -190 49 -14 5 -45 15 -70 22 -85 24 -325 120
-417 166 -183 92 -368 286 -491 513 -51 95 -128 300 -154 410 -91 379 -89 699
4 1060 103 398 301 703 583 895 141 96 290 150 510 184 253 39 372 62 490 92
114 29 364 106 420 129 11 5 67 27 125 50 290 114 687 327 978 524 101 68 379
271 392 286 3 3 39 33 80 67 41 34 118 100 170 146 52 47 98 86 102 86 4 1 43
-36 85 -81z m-4392 -793 c181 -14 346 -33 483 -55 34 -5 88 -14 120 -19 67
-11 259 -50 285 -57 13 -4 -6 -20 -72 -59 -356 -211 -632 -554 -804 -1001 -66
-172 -104 -324 -143 -569 -27 -170 -25 -574 4 -756 33 -204 101 -465 143 -541
5 -10 9 -23 9 -28 0 -17 95 -210 149 -304 129 -225 352 -464 551 -591 254
-163 721 -324 1140 -394 101 -17 367 -41 454 -41 99 0 356 26 456 46 205 41
398 107 570 194 244 123 493 331 683 570 58 73 177 244 177 254 0 3 15 29 34
58 73 116 252 523 287 653 4 17 15 55 24 85 45 152 72 258 113 458 l18 84 69
-62 c95 -85 206 -194 350 -342 127 -130 156 -162 274 -298 110 -127 111 -128
182 -220 358 -465 568 -892 646 -1311 26 -143 24 -441 -5 -572 -61 -276 -191
-527 -392 -752 -44 -49 -92 -111 -107 -137 l-28 -48 -4750 0 -4750 0 -16 28
c-286 482 -467 928 -573 1407 -54 242 -76 451 -76 717 0 243 12 365 60 602 31
152 136 444 208 576 14 25 41 74 60 110 118 216 284 421 606 748 492 500 919
846 1336 1084 686 390 1404 546 2225 483z m6857 -6301 c3 -3 -3 -31 -15 -62
-23 -64 -300 -533 -356 -602 -20 -25 -58 -75 -83 -111 -96 -136 -299 -284
-463 -338 -45 -15 -123 -16 -860 -11 -1051 8 -7329 8 -8380 0 -737 -5 -815 -4
-860 11 -164 54 -367 202 -463 338 -25 36 -63 86 -83 111 -56 69 -333 538
-356 602 -12 31 -18 59 -15 62 7 8 11927 8 11934 0z"/>
<path d="M9748 8127 c-55 -21 -111 -70 -140 -124 -15 -26 -38 -96 -52 -155
-52 -218 -149 -453 -250 -605 -58 -89 -183 -218 -257 -266 -137 -90 -253 -118
-474 -114 -126 2 -144 0 -180 -20 -99 -53 -148 -131 -148 -238 0 -86 19 -131
78 -190 68 -68 148 -89 340 -88 208 0 351 32 531 117 367 174 659 560 838
1108 63 193 80 367 42 438 -26 50 -74 98 -121 122 -50 26 -156 34 -207 15z"/>
<path d="M5180 8980 c-312 -106 -1253 -667 -1627 -969 -224 -181 -433 -425
-575 -671 -93 -162 -116 -212 -193 -410 -102 -263 -170 -688 -132 -821 34
-116 133 -189 254 -189 80 0 134 22 185 72 48 49 70 100 80 193 5 44 13 118
19 165 28 244 138 544 281 774 84 134 166 234 298 362 116 113 196 175 395
308 514 342 972 602 1211 685 80 29 142 77 178 141 26 47 30 65 30 125 0 58
-5 79 -29 124 -73 134 -199 171 -375 111z"/>
</g>
</svg>
